<mxfile host="app.diagrams.net" modified="2023-12-15T10:22:24.009Z" agent="Mozilla/5.0 (Windows NT 10.0; Win64; x64) AppleWebKit/537.36 (KHTML, like Gecko) Chrome/120.0.0.0 Safari/537.36" etag="CYISeJxtGA4my1RSggzm" version="22.1.9" type="github">
  <diagram name="Page-1" id="bfe91b75-5d2c-26a0-9c1d-138518896778">
    <mxGraphModel dx="2492" dy="884" grid="1" gridSize="10" guides="1" tooltips="1" connect="1" arrows="1" fold="1" page="1" pageScale="1" pageWidth="1100" pageHeight="850" background="none" math="0" shadow="0">
      <root>
        <mxCell id="0" />
        <mxCell id="1" parent="0" />
        <mxCell id="7c3789c024ecab99-79" value="Campus wing B" style="rounded=1;whiteSpace=wrap;html=1;shadow=0;comic=0;strokeColor=#036897;strokeWidth=2;fillColor=none;fontFamily=Verdana;fontSize=28;fontColor=#6881B3;align=center;arcSize=11;verticalAlign=top;" parent="1" vertex="1">
          <mxGeometry x="90" y="855" width="1065" height="420" as="geometry" />
        </mxCell>
        <mxCell id="7c3789c024ecab99-55" style="edgeStyle=none;html=1;labelBackgroundColor=none;endArrow=none;endFill=0;strokeWidth=2;fontFamily=Verdana;fontSize=28;fontColor=#6881B3;" parent="1" source="7c3789c024ecab99-8" target="7c3789c024ecab99-54" edge="1">
          <mxGeometry relative="1" as="geometry">
            <mxPoint x="1660" y="837.0000000000002" as="targetPoint" />
          </mxGeometry>
        </mxCell>
        <mxCell id="7c3789c024ecab99-8" value="" style="fontColor=#0066CC;verticalAlign=top;verticalLabelPosition=bottom;labelPosition=center;align=center;html=1;fillColor=#CCCCCC;strokeColor=#6881B3;gradientColor=none;gradientDirection=north;strokeWidth=2;shape=mxgraph.networks.firewall;rounded=0;shadow=0;comic=0;" parent="1" vertex="1">
          <mxGeometry x="1520" y="1004.5" width="100" height="100" as="geometry" />
        </mxCell>
        <mxCell id="7c3789c024ecab99-52" style="edgeStyle=none;html=1;labelBackgroundColor=none;endArrow=none;endFill=0;strokeWidth=2;fontFamily=Verdana;fontSize=15;fontColor=#036897;" parent="1" source="7c3789c024ecab99-10" target="7c3789c024ecab99-8" edge="1">
          <mxGeometry relative="1" as="geometry">
            <mxPoint x="1549.9999999999995" y="917" as="targetPoint" />
          </mxGeometry>
        </mxCell>
        <mxCell id="7c3789c024ecab99-10" value="" style="fontColor=#0066CC;verticalAlign=top;verticalLabelPosition=bottom;labelPosition=center;align=center;html=1;fillColor=#CCCCCC;strokeColor=#6881B3;gradientColor=none;gradientDirection=north;strokeWidth=2;shape=mxgraph.networks.router;rounded=0;shadow=0;comic=0;" parent="1" vertex="1">
          <mxGeometry x="1290" y="1030" width="100" height="30" as="geometry" />
        </mxCell>
        <mxCell id="7c3789c024ecab99-20" value="" style="fontColor=#0066CC;verticalAlign=top;verticalLabelPosition=bottom;labelPosition=center;align=center;html=1;fillColor=#CCCCCC;strokeColor=#6881B3;gradientColor=none;gradientDirection=north;strokeWidth=2;shape=mxgraph.networks.pc;rounded=0;shadow=0;comic=0;" parent="1" vertex="1">
          <mxGeometry x="110.00000000000028" y="1179" width="100" height="70" as="geometry" />
        </mxCell>
        <mxCell id="7c3789c024ecab99-21" value="" style="fontColor=#0066CC;verticalAlign=top;verticalLabelPosition=bottom;labelPosition=center;align=center;html=1;fillColor=#CCCCCC;strokeColor=#6881B3;gradientColor=none;gradientDirection=north;strokeWidth=2;shape=mxgraph.networks.pc;rounded=0;shadow=0;comic=0;" parent="1" vertex="1">
          <mxGeometry x="260.0000000000003" y="1179" width="100" height="70" as="geometry" />
        </mxCell>
        <mxCell id="7c3789c024ecab99-23" value="" style="fontColor=#0066CC;verticalAlign=top;verticalLabelPosition=bottom;labelPosition=center;align=center;html=1;fillColor=#CCCCCC;strokeColor=#6881B3;gradientColor=none;gradientDirection=north;strokeWidth=2;shape=mxgraph.networks.pc;rounded=0;shadow=0;comic=0;" parent="1" vertex="1">
          <mxGeometry x="410.0000000000003" y="1170" width="100" height="70" as="geometry" />
        </mxCell>
        <mxCell id="7c3789c024ecab99-25" value="" style="fontColor=#0066CC;verticalAlign=top;verticalLabelPosition=bottom;labelPosition=center;align=center;html=1;fillColor=#CCCCCC;strokeColor=#6881B3;gradientColor=none;gradientDirection=north;strokeWidth=2;shape=mxgraph.networks.pc;rounded=0;shadow=0;comic=0;" parent="1" vertex="1">
          <mxGeometry x="560.5000000000002" y="1170" width="100" height="70" as="geometry" />
        </mxCell>
        <mxCell id="7c3789c024ecab99-27" value="" style="fontColor=#0066CC;verticalAlign=top;verticalLabelPosition=bottom;labelPosition=center;align=center;html=1;fillColor=#CCCCCC;strokeColor=#6881B3;gradientColor=none;gradientDirection=north;strokeWidth=2;shape=mxgraph.networks.pc;rounded=0;shadow=0;comic=0;" parent="1" vertex="1">
          <mxGeometry x="690.0000000000002" y="1170" width="100" height="70" as="geometry" />
        </mxCell>
        <mxCell id="7c3789c024ecab99-50" style="edgeStyle=orthogonalEdgeStyle;html=1;labelBackgroundColor=none;endArrow=none;endFill=0;strokeWidth=2;fontFamily=Verdana;fontSize=15;fontColor=#036897;" parent="1" source="7c3789c024ecab99-30" target="7c3789c024ecab99-10" edge="1">
          <mxGeometry relative="1" as="geometry">
            <mxPoint x="1079.9999999999995" y="410" as="targetPoint" />
            <mxPoint x="1200" y="620" as="sourcePoint" />
            <Array as="points">
              <mxPoint x="1340" y="930" />
            </Array>
          </mxGeometry>
        </mxCell>
        <mxCell id="7c3789c024ecab99-30" value="" style="fontColor=#0066CC;verticalAlign=top;verticalLabelPosition=bottom;labelPosition=center;align=center;html=1;fillColor=#CCCCCC;strokeColor=#6881B3;gradientColor=none;gradientDirection=north;strokeWidth=2;shape=mxgraph.networks.wireless_hub;rounded=0;shadow=0;comic=0;" parent="1" vertex="1">
          <mxGeometry x="680.0000000000002" y="912" width="100" height="85" as="geometry" />
        </mxCell>
        <mxCell id="7c3789c024ecab99-19" style="edgeStyle=none;html=1;labelBackgroundColor=none;endArrow=none;endFill=0;strokeWidth=2;fontFamily=Verdana;fontSize=15;fontColor=#036897;" parent="1" source="7c3789c024ecab99-20" target="7c3789c024ecab99-30" edge="1">
          <mxGeometry relative="1" as="geometry">
            <mxPoint x="650.0000000000002" y="695" as="targetPoint" />
          </mxGeometry>
        </mxCell>
        <mxCell id="7c3789c024ecab99-22" style="edgeStyle=none;html=1;labelBackgroundColor=none;endArrow=none;endFill=0;strokeWidth=2;fontFamily=Verdana;fontSize=15;fontColor=#036897;" parent="1" source="7c3789c024ecab99-23" target="7c3789c024ecab99-30" edge="1">
          <mxGeometry relative="1" as="geometry" />
        </mxCell>
        <mxCell id="7c3789c024ecab99-24" style="edgeStyle=none;html=1;labelBackgroundColor=none;endArrow=none;endFill=0;strokeWidth=2;fontFamily=Verdana;fontSize=15;fontColor=#036897;" parent="1" source="7c3789c024ecab99-25" target="7c3789c024ecab99-30" edge="1">
          <mxGeometry relative="1" as="geometry" />
        </mxCell>
        <mxCell id="7c3789c024ecab99-26" style="edgeStyle=none;html=1;labelBackgroundColor=none;endArrow=none;endFill=0;strokeWidth=2;fontFamily=Verdana;fontSize=15;fontColor=#036897;" parent="1" source="7c3789c024ecab99-27" target="7c3789c024ecab99-30" edge="1">
          <mxGeometry relative="1" as="geometry" />
        </mxCell>
        <mxCell id="7c3789c024ecab99-28" style="edgeStyle=none;html=1;labelBackgroundColor=none;endArrow=none;endFill=0;strokeWidth=2;fontFamily=Verdana;fontSize=15;fontColor=#036897;" parent="1" source="7c3789c024ecab99-29" target="7c3789c024ecab99-30" edge="1">
          <mxGeometry relative="1" as="geometry" />
        </mxCell>
        <mxCell id="7c3789c024ecab99-31" value="" style="html=1;fillColor=#CCCCCC;strokeColor=#6881B3;gradientColor=none;gradientDirection=north;strokeWidth=2;shape=mxgraph.networks.comm_link_edge;html=1;labelBackgroundColor=none;endArrow=none;endFill=0;fontFamily=Verdana;fontSize=20;" parent="1" source="7c3789c024ecab99-30" target="7c3789c024ecab99-32" edge="1">
          <mxGeometry width="100" height="100" relative="1" as="geometry">
            <mxPoint x="900.0000000000002" y="675" as="sourcePoint" />
            <mxPoint x="603.0000000000002" y="588" as="targetPoint" />
          </mxGeometry>
        </mxCell>
        <mxCell id="7c3789c024ecab99-32" value="" style="fontColor=#0066CC;verticalAlign=top;verticalLabelPosition=bottom;labelPosition=center;align=center;html=1;fillColor=#CCCCCC;strokeColor=#6881B3;gradientColor=none;gradientDirection=north;strokeWidth=2;shape=mxgraph.networks.mobile;rounded=0;shadow=0;comic=0;" parent="1" vertex="1">
          <mxGeometry x="350.0000000000003" y="904.5" width="50" height="100" as="geometry" />
        </mxCell>
        <mxCell id="7c3789c024ecab99-53" value="Internet" style="html=1;fillColor=#CCCCCC;strokeColor=#6881B3;gradientColor=none;gradientDirection=north;strokeWidth=2;shape=mxgraph.networks.cloud;fontColor=#6881B3;rounded=0;shadow=0;comic=0;align=center;fontSize=28;" parent="1" vertex="1">
          <mxGeometry x="1950" y="964.5" width="330" height="140" as="geometry" />
        </mxCell>
        <mxCell id="7c3789c024ecab99-56" style="edgeStyle=none;html=1;labelBackgroundColor=none;endArrow=none;endFill=0;strokeWidth=2;fontFamily=Verdana;fontSize=28;fontColor=#6881B3;" parent="1" source="7c3789c024ecab99-54" target="7c3789c024ecab99-53" edge="1">
          <mxGeometry relative="1" as="geometry" />
        </mxCell>
        <mxCell id="7c3789c024ecab99-54" value="" style="fontColor=#0066CC;verticalAlign=top;verticalLabelPosition=bottom;labelPosition=center;align=center;html=1;fillColor=#CCCCCC;strokeColor=#6881B3;gradientColor=none;gradientDirection=north;strokeWidth=2;shape=mxgraph.networks.router;rounded=0;shadow=0;comic=0;" parent="1" vertex="1">
          <mxGeometry x="1730" y="1030" width="100" height="30" as="geometry" />
        </mxCell>
        <mxCell id="7c3789c024ecab99-60" style="edgeStyle=none;html=1;labelBackgroundColor=none;endArrow=none;endFill=0;strokeWidth=2;fontFamily=Verdana;fontSize=28;fontColor=#6881B3;" parent="1" source="7c3789c024ecab99-57" target="7c3789c024ecab99-54" edge="1">
          <mxGeometry relative="1" as="geometry" />
        </mxCell>
        <mxCell id="7c3789c024ecab99-57" value="" style="fontColor=#0066CC;verticalAlign=top;verticalLabelPosition=bottom;labelPosition=center;align=center;html=1;fillColor=#CCCCCC;strokeColor=#6881B3;gradientColor=none;gradientDirection=north;strokeWidth=2;shape=mxgraph.networks.storage;rounded=0;shadow=0;comic=0;" parent="1" vertex="1">
          <mxGeometry x="1620" y="1300" width="100" height="100" as="geometry" />
        </mxCell>
        <mxCell id="7c3789c024ecab99-59" style="edgeStyle=none;html=1;labelBackgroundColor=none;endArrow=none;endFill=0;strokeWidth=2;fontFamily=Verdana;fontSize=28;fontColor=#6881B3;" parent="1" source="7c3789c024ecab99-58" target="7c3789c024ecab99-54" edge="1">
          <mxGeometry relative="1" as="geometry">
            <mxPoint x="1570" y="827" as="targetPoint" />
          </mxGeometry>
        </mxCell>
        <mxCell id="7c3789c024ecab99-58" value="" style="fontColor=#0066CC;verticalAlign=top;verticalLabelPosition=bottom;labelPosition=center;align=center;html=1;fillColor=#CCCCCC;strokeColor=#6881B3;gradientColor=none;gradientDirection=north;strokeWidth=2;shape=mxgraph.networks.server_storage;rounded=0;shadow=0;comic=0;" parent="1" vertex="1">
          <mxGeometry x="1598" y="700" width="105" height="105" as="geometry" />
        </mxCell>
        <mxCell id="YnDnjKDBltJBv9p5n75K-1" value="" style="fontColor=#0066CC;verticalAlign=top;verticalLabelPosition=bottom;labelPosition=center;align=center;html=1;fillColor=#CCCCCC;strokeColor=#6881B3;gradientColor=none;gradientDirection=north;strokeWidth=2;shape=mxgraph.networks.printer;rounded=0;shadow=0;comic=0;" vertex="1" parent="1">
          <mxGeometry x="980" y="1145" width="100" height="90" as="geometry" />
        </mxCell>
        <mxCell id="YnDnjKDBltJBv9p5n75K-2" style="edgeStyle=orthogonalEdgeStyle;rounded=0;orthogonalLoop=1;jettySize=auto;html=1;entryX=0.767;entryY=1.077;entryDx=0;entryDy=0;entryPerimeter=0;" edge="1" parent="1" source="7c3789c024ecab99-29" target="7c3789c024ecab99-30">
          <mxGeometry relative="1" as="geometry">
            <Array as="points" />
          </mxGeometry>
        </mxCell>
        <mxCell id="YnDnjKDBltJBv9p5n75K-3" value="" style="edgeStyle=orthogonalEdgeStyle;rounded=0;orthogonalLoop=1;jettySize=auto;html=1;entryX=0.767;entryY=1.077;entryDx=0;entryDy=0;entryPerimeter=0;" edge="1" parent="1" source="YnDnjKDBltJBv9p5n75K-1" target="7c3789c024ecab99-29">
          <mxGeometry relative="1" as="geometry">
            <mxPoint x="950" y="1180" as="sourcePoint" />
            <mxPoint x="757" y="1004" as="targetPoint" />
            <Array as="points">
              <mxPoint x="757" y="1180" />
            </Array>
          </mxGeometry>
        </mxCell>
        <mxCell id="7c3789c024ecab99-29" value="" style="fontColor=#0066CC;verticalAlign=top;verticalLabelPosition=bottom;labelPosition=center;align=center;html=1;fillColor=#CCCCCC;strokeColor=#6881B3;gradientColor=none;gradientDirection=north;strokeWidth=2;shape=mxgraph.networks.printer;rounded=0;shadow=0;comic=0;" parent="1" vertex="1">
          <mxGeometry x="840.0000000000002" y="1140" width="100" height="100" as="geometry" />
        </mxCell>
        <mxCell id="YnDnjKDBltJBv9p5n75K-5" style="edgeStyle=orthogonalEdgeStyle;rounded=0;orthogonalLoop=1;jettySize=auto;html=1;exitX=0.5;exitY=0;exitDx=0;exitDy=0;exitPerimeter=0;entryX=0.5;entryY=1;entryDx=0;entryDy=0;entryPerimeter=0;shape=link;" edge="1" parent="1" source="YnDnjKDBltJBv9p5n75K-1" target="7c3789c024ecab99-30">
          <mxGeometry relative="1" as="geometry" />
        </mxCell>
        <mxCell id="YnDnjKDBltJBv9p5n75K-6" style="edgeStyle=orthogonalEdgeStyle;rounded=0;orthogonalLoop=1;jettySize=auto;html=1;exitX=0.5;exitY=0.07;exitDx=0;exitDy=0;exitPerimeter=0;entryX=0;entryY=0.7;entryDx=0;entryDy=0;entryPerimeter=0;strokeColor=#080303;fillColor=#f8cecc;shape=link;" edge="1" parent="1" source="7c3789c024ecab99-21" target="7c3789c024ecab99-30">
          <mxGeometry relative="1" as="geometry" />
        </mxCell>
      </root>
    </mxGraphModel>
  </diagram>
</mxfile>
